<mxfile host="app.diagrams.net" modified="2024-03-02T17:06:39.589Z" agent="Mozilla/5.0 (Windows NT 10.0; Win64; x64) AppleWebKit/537.36 (KHTML, like Gecko) Chrome/121.0.0.0 Safari/537.36 Edg/121.0.0.0" version="24.0.1" etag="7mTkil98_9J9TOqgvdvM" type="github">
  <diagram name="PÃ¡gina-1" id="VRNyiYNbo2CfEKaAHPXM">
    <mxGraphModel>
      <root>
        <mxCell id="0" />
        <mxCell id="1" parent="0" />
      </root>
    </mxGraphModel>
  </diagram>
</mxfile>
